<svg width="43" height="36" viewBox="0 0 43 36" fill="none" xmlns="http://www.w3.org/2000/svg">
<rect x="1.15997" y="0.5" width="41.34" height="35" rx="1.5" fill="white"/>
<g clip-path="url(#clip0_1_1026)">
<path fill-rule="evenodd" clip-rule="evenodd" d="M23.2944 19.4967L27.9889 24.1767C28.0911 24.2789 28.1011 24.4345 28.0111 24.5245L26.3833 26.1467C26.2933 26.2367 26.1378 26.2267 26.0344 26.1245L21.35 21.4545" fill="#2874F0"/>
<path fill-rule="evenodd" clip-rule="evenodd" d="M17.5922 20.6122C14.9033 20.6122 12.7244 18.4389 12.7244 15.7589C12.7244 13.0778 14.9033 10.9044 17.5922 10.9044C20.2811 10.9044 22.46 13.0778 22.46 15.7589C22.46 18.44 20.2811 20.6122 17.5922 20.6122ZM17.5922 8.57333C13.6122 8.57333 10.3855 11.79 10.3855 15.7589C10.3855 19.7278 13.6122 22.9444 17.5922 22.9444C21.5722 22.9444 24.7989 19.7278 24.7989 15.7589C24.7989 11.79 21.5722 8.57333 17.5922 8.57333Z" fill="#2874F0"/>
</g>
<rect x="1.15997" y="0.5" width="41.34" height="35" rx="1.5" stroke="white"/>
<defs>
<clipPath id="clip0_1_1026">
<rect width="20" height="20" fill="white" transform="translate(9.82999 8.5)"/>
</clipPath>
</defs>
</svg>
