<svg width="19" height="18" viewBox="0 0 19 18" fill="none" xmlns="http://www.w3.org/2000/svg">
<g clip-path="url(#clip0_1_717)">
<path d="M15.917 4.25976H14.1C14.192 4.00176 14.25 3.71776 14.25 3.42676C14.2505 2.88933 14.0777 2.36606 13.7571 1.93471C13.4365 1.50337 12.9853 1.18697 12.4706 1.03253C11.9558 0.878087 11.4049 0.893851 10.8998 1.07748C10.3948 1.2611 9.96239 1.60279 9.667 2.05176L9.25 2.60976L8.833 2.04276C8.60411 1.70002 8.29434 1.41892 7.93105 1.22429C7.56776 1.02965 7.16214 0.927468 6.75 0.92676C6.42158 0.926365 6.09632 0.99076 5.79282 1.11626C5.48933 1.24175 5.21358 1.42589 4.98135 1.65811C4.74913 1.89034 4.56499 2.16609 4.4395 2.46958C4.314 2.77308 4.2496 3.09834 4.25 3.42676C4.25 3.71776 4.308 4.00176 4.4 4.25976H2.583C1.658 4.25976 0.924999 5.00176 0.924999 5.92676L0.916999 15.0928C0.916074 15.3118 0.958527 15.529 1.04191 15.7316C1.1253 15.9342 1.24796 16.1182 1.40284 16.2732C1.55771 16.4282 1.74173 16.551 1.94428 16.6345C2.14683 16.718 2.36391 16.7606 2.583 16.7598H15.917C16.1361 16.7606 16.3532 16.718 16.5557 16.6345C16.7583 16.551 16.9423 16.4282 17.0972 16.2732C17.252 16.1182 17.3747 15.9342 17.4581 15.7316C17.5415 15.529 17.5839 15.3118 17.583 15.0928V5.92676C17.5839 5.70767 17.5415 5.49057 17.4581 5.28796C17.3747 5.08536 17.252 4.90127 17.0972 4.7463C16.9423 4.59134 16.7583 4.46856 16.5557 4.38506C16.3532 4.30155 16.1361 4.25897 15.917 4.25976ZM15.917 10.9268H2.583V5.92676H6.817L5.083 8.28476L6.433 9.25976L8.417 6.55976L9.25 5.42676L10.083 6.55976L12.067 9.25976L13.417 8.28476L11.683 5.92676H15.917V10.9268Z" fill="url(#paint0_linear_1_717)"/>
</g>
<defs>
<linearGradient id="paint0_linear_1_717" x1="0.916985" y1="0.926758" x2="1380.26" y2="1341.3" gradientUnits="userSpaceOnUse">
<stop stop-color="#FFD800"/>
<stop offset="1" stop-color="#FFAF00"/>
</linearGradient>
<clipPath id="clip0_1_717">
<rect width="18" height="17" fill="white" transform="translate(0.25 0.259766)"/>
</clipPath>
</defs>
</svg>
