<svg width="16" height="16" viewBox="0 0 16 16" fill="none" xmlns="http://www.w3.org/2000/svg">
<g clip-path="url(#clip0_1_724)">
<path d="M7.52002 0.259766C3.38002 0.259766 0.0200195 3.61977 0.0200195 7.75977C0.0200195 11.8998 3.38002 15.2598 7.52002 15.2598C11.66 15.2598 15.02 11.8998 15.02 7.75977C15.02 3.61977 11.66 0.259766 7.52002 0.259766ZM8.27002 13.0098H6.77002V11.5098H8.27002V13.0098ZM9.82302 7.19677L9.14702 7.88677C8.60702 8.43477 8.27002 8.88477 8.27002 10.0098H6.77002V9.63477C6.77002 8.80977 7.10802 8.05977 7.64702 7.51177L8.57702 6.56677C8.85502 6.29677 9.02002 5.92177 9.02002 5.50977C9.02002 4.68477 8.34502 4.00977 7.52002 4.00977C6.69502 4.00977 6.02002 4.68477 6.02002 5.50977H4.52002C4.52002 5.1158 4.59762 4.72569 4.74838 4.36172C4.89915 3.99774 5.12012 3.66702 5.3987 3.38845C5.67728 3.10987 6.00799 2.88889 6.37197 2.73813C6.73595 2.58736 7.12605 2.50977 7.52002 2.50977C7.91399 2.50977 8.30409 2.58736 8.66807 2.73813C9.03205 2.88889 9.36276 3.10987 9.64134 3.38845C9.91992 3.66702 10.1409 3.99774 10.2917 4.36172C10.4424 4.72569 10.52 5.1158 10.52 5.50977C10.52 6.16977 10.25 6.76877 9.82302 7.19677Z" fill="url(#paint0_linear_1_724)"/>
</g>
<defs>
<linearGradient id="paint0_linear_1_724" x1="0.0200195" y1="0.259766" x2="1303.16" y2="1203.29" gradientUnits="userSpaceOnUse">
<stop stop-color="#FFD800"/>
<stop offset="1" stop-color="#FFAF00"/>
</linearGradient>
<clipPath id="clip0_1_724">
<rect width="15" height="15" fill="white" transform="translate(0.0200195 0.259766)"/>
</clipPath>
</defs>
</svg>
