<svg width="378" height="19" viewBox="0 0 378 19" fill="none" xmlns="http://www.w3.org/2000/svg">
<g clip-path="url(#clip0_1_732)">
<path d="M375.14 1.22949H341.14C340.875 1.22949 340.62 1.33485 340.433 1.52239C340.245 1.70992 340.14 1.96428 340.14 2.22949V16.8895C340.14 17.1547 340.245 17.4091 340.433 17.5966C340.62 17.7842 340.875 17.8895 341.14 17.8895H375.14C375.405 17.8895 375.66 17.7842 375.847 17.5966C376.035 17.4091 376.14 17.1547 376.14 16.8895V2.22949C376.14 1.96428 376.035 1.70992 375.847 1.52239C375.66 1.33485 375.405 1.22949 375.14 1.22949Z" fill="white" stroke="#E0E0E0" stroke-width="0.67"/>
<path d="M355.39 7.36959H354.07V8.36959H355.61V8.80959H353.52V5.55959H355.59V6.00959H354.07V6.89959H355.39V7.36959ZM357.85 8.04959H356.61L356.35 8.78959H355.78L356.99 5.55959H357.48L358.69 8.75959H358.14L357.85 8.04959ZM356.77 7.55959H357.7L357.23 6.22959L356.77 7.55959ZM360.77 7.92959C360.773 7.86666 360.76 7.80397 360.734 7.74663C360.708 7.68928 360.669 7.6389 360.62 7.59959C360.455 7.49768 360.277 7.4202 360.09 7.36959C359.871 7.31418 359.662 7.22655 359.47 7.10959C359.341 7.04104 359.233 6.93885 359.157 6.81386C359.081 6.68887 359.041 6.54572 359.04 6.39959C359.037 6.27598 359.064 6.15349 359.118 6.04221C359.172 5.93093 359.251 5.83406 359.35 5.75959C359.583 5.60655 359.862 5.53614 360.14 5.55959C360.343 5.55568 360.544 5.59666 360.73 5.67959C360.901 5.75771 361.046 5.88249 361.15 6.03959C361.25 6.18698 361.302 6.3615 361.3 6.53959H360.74C360.745 6.46662 360.734 6.39336 360.706 6.32565C360.678 6.25794 360.635 6.19765 360.58 6.14959C360.519 6.09581 360.447 6.05482 360.37 6.02906C360.293 6.0033 360.211 5.99328 360.13 5.99959C359.98 5.99076 359.832 6.03308 359.71 6.11959C359.661 6.1589 359.621 6.20928 359.595 6.26663C359.569 6.32397 359.557 6.38666 359.56 6.44959C359.563 6.50687 359.579 6.56272 359.607 6.61294C359.634 6.66317 359.673 6.70647 359.72 6.73959C359.888 6.8424 360.069 6.9199 360.26 6.96959C360.47 7.02602 360.672 7.11009 360.86 7.21959C360.977 7.31071 361.073 7.42686 361.14 7.55959C361.215 7.69028 361.253 7.83893 361.25 7.98959C361.253 8.11193 361.227 8.2333 361.173 8.34311C361.119 8.45292 361.039 8.54785 360.94 8.61959C360.699 8.79188 360.406 8.87656 360.11 8.85959C359.89 8.86283 359.671 8.81848 359.47 8.72959C359.29 8.65257 359.134 8.52814 359.02 8.36959C358.911 8.21847 358.855 8.03577 358.86 7.84959H359.41C359.406 7.92868 359.42 8.00764 359.451 8.08042C359.482 8.15321 359.53 8.21791 359.59 8.26959C359.741 8.37773 359.924 8.43069 360.11 8.41959C360.266 8.42983 360.421 8.38759 360.55 8.29959C360.605 8.26355 360.65 8.2146 360.681 8.15705C360.712 8.09951 360.729 8.03514 360.73 7.96959L360.77 7.92959ZM362.86 7.06959L363.56 5.55959H364.14L363.07 7.55959V8.78959H362.51V7.61959L361.44 5.61959H362.05L362.86 7.06959ZM367.55 7.32959H366.23V8.32959H367.77V8.76959H365.64V5.55959H367.72V6.00959H366.19V6.89959H367.51L367.55 7.32959ZM368.9 5.55959L369.83 8.01959L370.75 5.55959H371.47V8.75959H370.91V7.73959L370.97 6.32959L370.02 8.78959H369.62L368.68 6.32959L368.74 7.73959V8.78959H368.14V5.55959H368.9ZM372.71 8.75959H372.14V5.55959H372.69L372.71 8.75959ZM356.07 12.2496C356.078 12.5314 356.023 12.8114 355.91 13.0696C355.813 13.2966 355.649 13.4885 355.44 13.6196C355.232 13.7453 354.993 13.811 354.75 13.8096C354.504 13.8098 354.262 13.7442 354.05 13.6196C353.846 13.4872 353.683 13.3001 353.58 13.0796C353.468 12.8244 353.414 12.548 353.42 12.2696V12.0896C353.413 11.8047 353.468 11.5217 353.58 11.2596C353.68 11.0346 353.843 10.8435 354.05 10.7096C354.256 10.5793 354.496 10.5131 354.74 10.5196C354.987 10.5135 355.23 10.5796 355.44 10.7096C355.645 10.8377 355.806 11.0264 355.9 11.2496C356.017 11.5069 356.075 11.787 356.07 12.0696V12.2496ZM355.52 12.0796C355.539 11.7941 355.465 11.51 355.31 11.2696C355.248 11.1763 355.163 11.1005 355.063 11.0497C354.963 10.9989 354.852 10.9747 354.74 10.9796C354.63 10.9774 354.521 11.0028 354.423 11.0534C354.325 11.1041 354.242 11.1784 354.18 11.2696C354.03 11.5049 353.956 11.7809 353.97 12.0596V12.2496C353.952 12.535 354.026 12.8187 354.18 13.0596C354.246 13.1486 354.332 13.2208 354.431 13.2706C354.53 13.3204 354.639 13.3463 354.75 13.3463C354.861 13.3463 354.97 13.3204 355.069 13.2706C355.168 13.2208 355.254 13.1486 355.32 13.0596C355.467 12.8124 355.537 12.5268 355.52 12.2396V12.0796ZM357.18 12.5796V13.7596H356.62V10.5596H357.85C358.158 10.5458 358.46 10.6454 358.7 10.8396C358.802 10.934 358.883 11.0485 358.938 11.1759C358.993 11.3033 359.021 11.4408 359.02 11.5796C359.027 11.7168 359.002 11.8537 358.949 11.9802C358.895 12.1066 358.813 12.2192 358.71 12.3096C358.462 12.5024 358.153 12.5984 357.84 12.5796H357.18ZM357.18 12.1296H357.85C358.012 12.1409 358.173 12.0909 358.3 11.9896C358.355 11.9395 358.398 11.8775 358.426 11.8082C358.454 11.7388 358.465 11.6641 358.46 11.5896C358.464 11.5123 358.452 11.4349 358.425 11.3625C358.397 11.2902 358.355 11.2244 358.3 11.1696C358.177 11.0651 358.021 11.0083 357.86 11.0096H357.14L357.18 12.1296ZM361.81 11.0096H360.81V13.7596H360.26V11.0396H359.26V10.5596H361.79L361.81 11.0096ZM362.81 13.7596H362.26V10.5596H362.81V13.7596ZM366.05 12.2496C366.058 12.5314 366.003 12.8114 365.89 13.0696C365.79 13.2946 365.626 13.4857 365.42 13.6196C365.212 13.7453 364.973 13.811 364.73 13.8096C364.484 13.8098 364.242 13.7442 364.03 13.6196C363.826 13.4872 363.663 13.3001 363.56 13.0796C363.448 12.8244 363.394 12.548 363.4 12.2696V12.0896C363.393 11.8047 363.448 11.5217 363.56 11.2596C363.66 11.0346 363.823 10.8435 364.03 10.7096C364.236 10.5793 364.476 10.5131 364.72 10.5196C364.966 10.5147 365.209 10.5806 365.42 10.7096C365.625 10.8377 365.786 11.0264 365.88 11.2496C365.997 11.5069 366.055 11.787 366.05 12.0696V12.2496ZM365.49 12.0796C365.512 11.7952 365.442 11.5112 365.29 11.2696C365.228 11.1763 365.143 11.1005 365.043 11.0497C364.943 10.9989 364.832 10.9747 364.72 10.9796C364.61 10.9774 364.501 11.0028 364.403 11.0534C364.305 11.1041 364.222 11.1784 364.16 11.2696C364.01 11.5049 363.936 11.7809 363.95 12.0596V12.2496C363.932 12.535 364.006 12.8187 364.16 13.0596C364.222 13.153 364.307 13.2288 364.407 13.2796C364.507 13.3304 364.618 13.3545 364.73 13.3496C364.839 13.3548 364.948 13.3318 365.046 13.2828C365.144 13.2337 365.228 13.1604 365.29 13.0696C365.442 12.8244 365.512 12.5372 365.49 12.2496V12.0796ZM369.14 13.7896H368.59L367.14 11.5596V13.8296H366.58V10.5596H367.14L368.57 12.8396V10.5596H369.14V13.7896ZM371.47 12.9696C371.473 12.9067 371.46 12.844 371.434 12.7867C371.408 12.7293 371.369 12.6789 371.32 12.6396C371.155 12.5377 370.977 12.4602 370.79 12.4096C370.571 12.3542 370.362 12.2666 370.17 12.1496C370.041 12.0811 369.933 11.9789 369.857 11.8539C369.781 11.7289 369.741 11.5858 369.74 11.4396C369.737 11.316 369.764 11.1935 369.818 11.0822C369.872 10.971 369.951 10.8741 370.05 10.7996C370.285 10.6222 370.576 10.5337 370.87 10.5496C371.073 10.5457 371.274 10.5867 371.46 10.6696C371.63 10.7449 371.773 10.8705 371.87 11.0296C371.974 11.1748 372.027 11.3509 372.02 11.5296H371.47C371.475 11.4566 371.464 11.3834 371.436 11.3157C371.408 11.248 371.365 11.1877 371.31 11.1396C371.249 11.0858 371.177 11.0449 371.1 11.0191C371.023 10.9933 370.941 10.9833 370.86 10.9896C370.71 10.9808 370.562 11.0231 370.44 11.1096C370.391 11.1489 370.351 11.1993 370.325 11.2567C370.299 11.314 370.287 11.3767 370.29 11.4396C370.29 11.4974 370.305 11.5541 370.333 11.6047C370.361 11.6554 370.401 11.6983 370.45 11.7296C370.618 11.8324 370.799 11.9099 370.99 11.9596C371.2 12.016 371.402 12.1001 371.59 12.2096C371.724 12.2921 371.837 12.4051 371.92 12.5396C371.995 12.6703 372.033 12.819 372.03 12.9696C372.031 13.0916 372.004 13.2121 371.95 13.3215C371.896 13.4309 371.817 13.5262 371.72 13.5996C371.479 13.7719 371.186 13.8566 370.89 13.8396C370.67 13.8438 370.451 13.7994 370.25 13.7096C370.068 13.6364 369.911 13.5112 369.8 13.3496C369.691 13.1985 369.635 13.0158 369.64 12.8296H370.19C370.186 12.9087 370.2 12.9877 370.231 13.0605C370.262 13.1332 370.31 13.1979 370.37 13.2496C370.52 13.3593 370.704 13.4124 370.89 13.3996C371.043 13.4116 371.195 13.3691 371.32 13.2796C371.37 13.2451 371.411 13.1987 371.439 13.1447C371.467 13.0906 371.481 13.0305 371.48 12.9696H371.47Z" fill="#4E4E4E"/>
<path fill-rule="evenodd" clip-rule="evenodd" d="M349.59 6.39957V5.55957H348.81V6.39957H345.67V5.55957H344.88V6.39957H344.49C344.384 6.40344 344.279 6.42824 344.182 6.47256C344.085 6.51688 343.998 6.57985 343.926 6.65787C343.853 6.73589 343.797 6.82742 343.76 6.92723C343.723 7.02705 343.706 7.13318 343.71 7.23957V12.7196C343.705 12.9354 343.784 13.1447 343.932 13.3019C344.08 13.4592 344.284 13.5518 344.5 13.5596H349.99C350.206 13.5518 350.41 13.4592 350.558 13.3019C350.705 13.1447 350.785 12.9354 350.78 12.7196V7.23957C350.785 7.02375 350.705 6.81451 350.558 6.65725C350.41 6.49999 350.206 6.4074 349.99 6.39957H349.59ZM344.49 12.7196V8.08957H349.98V12.7196H344.49Z" fill="#212121"/>
<path d="M346.36 10.4595C346.558 10.4595 346.751 10.4008 346.916 10.2909C347.08 10.1811 347.208 10.0249 347.284 9.84216C347.36 9.65943 347.38 9.45836 347.341 9.26438C347.302 9.0704 347.207 8.89222 347.067 8.75237C346.927 8.61251 346.749 8.51727 346.555 8.47869C346.361 8.4401 346.16 8.45991 345.978 8.53559C345.795 8.61128 345.639 8.73945 345.529 8.9039C345.419 9.06835 345.36 9.26169 345.36 9.45947C345.36 9.72469 345.466 9.97904 345.653 10.1666C345.841 10.3541 346.095 10.4595 346.36 10.4595Z" fill="#212121"/>
<path d="M347.93 12.3496C348.128 12.3496 348.321 12.291 348.486 12.1811C348.65 12.0712 348.778 11.915 348.854 11.7323C348.93 11.5496 348.949 11.3485 348.911 11.1545C348.872 10.9606 348.777 10.7824 348.637 10.6425C348.497 10.5027 348.319 10.4074 348.125 10.3688C347.931 10.3302 347.73 10.35 347.547 10.4257C347.365 10.5014 347.208 10.6296 347.099 10.7941C346.989 10.9585 346.93 11.1519 346.93 11.3496C346.93 11.6149 347.035 11.8692 347.223 12.0567C347.41 12.2443 347.665 12.3496 347.93 12.3496Z" fill="#212121"/>
<path d="M347.9 9.13965L346.25 11.6997" stroke="#212121" stroke-width="0.63" stroke-linecap="square"/>
<path d="M333.81 1.22949H299.81C299.545 1.22949 299.29 1.33485 299.103 1.52239C298.915 1.70992 298.81 1.96428 298.81 2.22949V16.8895C298.81 17.1547 298.915 17.4091 299.103 17.5966C299.29 17.7842 299.545 17.8895 299.81 17.8895H333.81C334.075 17.8895 334.329 17.7842 334.517 17.5966C334.705 17.4091 334.81 17.1547 334.81 16.8895V2.22949C334.81 1.96428 334.705 1.70992 334.517 1.52239C334.329 1.33485 334.075 1.22949 333.81 1.22949Z" fill="white" stroke="#E0E0E0" stroke-width="0.67"/>
<path d="M312.61 7.74938C312.591 8.055 312.455 8.34153 312.23 8.54937C311.982 8.75084 311.669 8.85407 311.35 8.83937C311.114 8.84435 310.882 8.7819 310.68 8.65938C310.485 8.53072 310.329 8.35079 310.23 8.13938C310.118 7.89464 310.06 7.62858 310.06 7.35938V7.06938C310.058 6.79455 310.112 6.52222 310.22 6.26938C310.324 6.05168 310.489 5.8688 310.695 5.74281C310.901 5.61682 311.139 5.55311 311.38 5.55938C311.69 5.54545 311.993 5.64903 312.23 5.84938C312.456 6.06029 312.592 6.35048 312.61 6.65938H312.05C312.046 6.47407 311.975 6.29654 311.85 6.15938C311.719 6.0505 311.55 5.99674 311.38 6.00938C311.271 6.00402 311.163 6.02592 311.066 6.07308C310.968 6.12025 310.883 6.19117 310.82 6.27938C310.677 6.50988 310.607 6.77838 310.62 7.04937V7.33938C310.607 7.61538 310.673 7.88933 310.81 8.12938C310.869 8.21736 310.95 8.28853 311.044 8.33587C311.139 8.38321 311.244 8.40509 311.35 8.39938C311.527 8.41519 311.702 8.36136 311.84 8.24938C311.97 8.11893 312.045 7.94356 312.05 7.75938L312.61 7.74938ZM314.9 8.04937H313.66L313.4 8.78937H312.82L314.03 5.55938H314.53L315.74 8.75938H315.14L314.9 8.04937ZM313.81 7.55938H314.74L314.28 6.22938L313.81 7.55938ZM317.81 7.92938C317.811 7.86677 317.797 7.8048 317.771 7.7478C317.746 7.6908 317.707 7.64014 317.66 7.59938C317.492 7.49757 317.31 7.42013 317.12 7.36938C316.904 7.31622 316.698 7.22841 316.51 7.10938C316.38 7.04131 316.27 6.9395 316.193 6.8146C316.115 6.6897 316.073 6.54629 316.07 6.39938C316.067 6.27576 316.094 6.15327 316.148 6.04199C316.202 5.93072 316.281 5.83385 316.38 5.75938C316.606 5.61403 316.872 5.54401 317.14 5.55938C317.346 5.55562 317.551 5.59655 317.74 5.67938C317.906 5.75631 318.048 5.87738 318.15 6.02938C318.249 6.18091 318.301 6.35832 318.3 6.53938H317.75C317.753 6.46664 317.741 6.39405 317.713 6.32669C317.685 6.25933 317.643 6.19881 317.59 6.14938C317.465 6.04358 317.304 5.98989 317.14 5.99938C316.99 5.99054 316.842 6.03286 316.72 6.11938C316.67 6.15818 316.629 6.20821 316.601 6.26549C316.573 6.32277 316.559 6.38572 316.56 6.44938C316.563 6.5079 316.579 6.5649 316.609 6.61544C316.639 6.66597 316.68 6.70852 316.73 6.73938C316.895 6.84129 317.073 6.91876 317.26 6.96938C317.47 7.0258 317.672 7.10987 317.86 7.21938C318.001 7.29703 318.118 7.41098 318.2 7.54937C318.27 7.67793 318.305 7.82296 318.3 7.96938C318.304 8.09324 318.278 8.21632 318.224 8.32787C318.17 8.43942 318.09 8.53606 317.99 8.60938C317.749 8.78166 317.456 8.86634 317.16 8.84938C316.94 8.84781 316.723 8.80366 316.52 8.71938C316.342 8.63914 316.187 8.51532 316.07 8.35938C315.961 8.20825 315.905 8.02556 315.91 7.83938H316.47C316.466 7.91847 316.48 7.99742 316.511 8.07021C316.543 8.14299 316.59 8.2077 316.65 8.25938C316.797 8.36755 316.978 8.42064 317.16 8.40938C317.316 8.42122 317.471 8.37883 317.6 8.28938C317.655 8.25631 317.701 8.2094 317.732 8.15328C317.764 8.09715 317.78 8.03377 317.78 7.96938L317.81 7.92938ZM321.39 8.74937H320.84V7.36938H319.4V8.78937H318.85V5.55938H319.4V6.92938H320.84V5.55938H321.39V8.74937ZM325.72 7.23938C325.728 7.52117 325.673 7.8012 325.56 8.05938C325.463 8.28635 325.299 8.47826 325.09 8.60938C324.881 8.73351 324.643 8.79903 324.4 8.79903C324.157 8.79903 323.919 8.73351 323.71 8.60938C323.504 8.4795 323.34 8.29167 323.24 8.06938C323.12 7.81321 323.061 7.53227 323.07 7.24938V7.10938C323.063 6.82767 323.118 6.54784 323.23 6.28938C323.33 6.06435 323.493 5.87326 323.7 5.73938C323.854 5.63937 324.028 5.57373 324.21 5.54691C324.392 5.52009 324.577 5.53273 324.753 5.58396C324.93 5.63519 325.093 5.72382 325.232 5.84382C325.372 5.96381 325.483 6.11236 325.56 6.27938C325.668 6.53899 325.723 6.81801 325.72 7.09938V7.23938ZM325.14 7.10938C325.158 6.82079 325.084 6.53396 324.93 6.28938C324.867 6.19999 324.783 6.12762 324.685 6.07875C324.588 6.02987 324.479 6.00604 324.37 6.00938C324.259 6.00614 324.15 6.02995 324.05 6.07875C323.951 6.12754 323.865 6.19984 323.8 6.28938C323.652 6.52905 323.578 6.80771 323.59 7.08938V7.27938C323.572 7.5648 323.646 7.84843 323.8 8.08938C323.864 8.18075 323.949 8.25499 324.049 8.30557C324.148 8.35614 324.258 8.38149 324.37 8.37938C324.481 8.38535 324.592 8.36275 324.691 8.31372C324.791 8.2647 324.877 8.1909 324.94 8.09938C325.087 7.85215 325.157 7.56655 325.14 7.27938V7.10938ZM328.78 8.78937H328.23L326.8 6.55938V8.78937H326.25V5.55938H326.8L328.23 7.83938V5.55938H328.78V8.78937ZM310.17 13.7894V10.5594H311.14C311.402 10.5583 311.66 10.6237 311.89 10.7494C312.108 10.8773 312.285 11.0646 312.4 11.2894C312.523 11.5344 312.585 11.8054 312.58 12.0794V12.2394C312.587 12.5168 312.525 12.7916 312.4 13.0394C312.284 13.2669 312.103 13.4549 311.88 13.5794C311.646 13.7021 311.384 13.764 311.12 13.7594L310.17 13.7894ZM310.72 11.0394V13.3494H311.14C311.263 13.3577 311.387 13.3377 311.501 13.2909C311.616 13.2441 311.718 13.1718 311.8 13.0794C311.972 12.8536 312.058 12.573 312.04 12.2894V12.1094C312.062 11.8284 311.984 11.5487 311.82 11.3194C311.74 11.224 311.638 11.1489 311.524 11.1002C311.409 11.0516 311.284 11.0307 311.16 11.0394H310.72ZM314.98 12.3594H313.66V13.3594H315.2V13.7994H313.14V10.5594H315.14V11.0094H313.62V11.8994H314.94L314.98 12.3594ZM316.21 13.3594H317.66V13.7994H315.66V10.5594H316.22L316.21 13.3594ZM318.67 13.7994H318.14V10.5594H318.69L318.67 13.7994ZM320.48 13.1094L321.29 10.5994H321.91L320.75 13.7994H320.22L319.07 10.5594H319.68L320.48 13.1094ZM324.14 12.3594H322.82V13.3594H324.36V13.7994H322.27V10.5594H324.34V11.0094H322.82V11.8994H324.14V12.3594ZM325.99 12.5594H325.37V13.7894H324.81V10.5594H325.94C326.244 10.5423 326.544 10.6306 326.79 10.8094C326.891 10.8988 326.971 11.01 327.023 11.1348C327.075 11.2595 327.098 11.3945 327.09 11.5294C327.092 11.72 327.04 11.9074 326.94 12.0694C326.83 12.2169 326.681 12.3311 326.51 12.3994L327.23 13.7294H326.63L325.99 12.5594ZM325.37 12.1094H325.94C326.099 12.1222 326.257 12.0719 326.38 11.9694C326.435 11.9213 326.478 11.8611 326.506 11.7933C326.534 11.7256 326.546 11.6524 326.54 11.5794C326.545 11.5074 326.534 11.4353 326.508 11.368C326.482 11.3007 326.442 11.2397 326.39 11.1894C326.332 11.1367 326.264 11.0962 326.19 11.0704C326.116 11.0447 326.038 11.0341 325.96 11.0394H325.37V12.1094ZM328.56 12.1094L329.3 10.5894H329.91L328.84 12.5894V13.7594H328.28V12.6194L327.21 10.6194H327.82L328.56 12.1094Z" fill="#4E4E4E"/>
<path d="M303.59 8.68943L303.41 9.18943H306C305.945 9.49019 305.777 9.75845 305.53 9.93943C305.083 10.2209 304.558 10.3539 304.03 10.3194H303.49V10.8895C303.734 10.8883 303.974 10.9578 304.18 11.0895C304.386 11.2425 304.565 11.4283 304.71 11.6395L306.5 14.0595H307.62L305.53 11.3695C305.382 11.1486 305.204 10.9499 305 10.7795C305.486 10.7129 305.942 10.5042 306.31 10.1794C306.593 9.91818 306.771 9.56256 306.81 9.17943H307.96L308.12 8.67943H306.82C306.801 8.43363 306.73 8.19458 306.613 7.97761C306.496 7.76063 306.335 7.57051 306.14 7.41943H307.93L308.11 6.91943H303.55L303.39 7.41943H304.3C304.744 7.39102 305.183 7.53017 305.53 7.80943C305.778 8.0386 305.932 8.35261 305.96 8.68943H303.59Z" fill="#212121"/>
<path d="M292.47 1.22949H258.47C258.205 1.22949 257.951 1.33485 257.763 1.52239C257.575 1.70992 257.47 1.96428 257.47 2.22949V16.8895C257.47 17.1547 257.575 17.4091 257.763 17.5966C257.951 17.7842 258.205 17.8895 258.47 17.8895H292.47C292.735 17.8895 292.99 17.7842 293.177 17.5966C293.365 17.4091 293.47 17.1547 293.47 16.8895V2.22949C293.47 1.96428 293.365 1.70992 293.177 1.52239C292.99 1.33485 292.735 1.22949 292.47 1.22949Z" fill="white" stroke="#E0E0E0" stroke-width="0.67"/>
<path d="M273 8.55938H272.45L271.02 6.28938V8.55938H270.47V5.35938H271.02L272.45 7.63938V5.35938H273V8.55938ZM275.53 7.12937H274.22V8.12937H275.75V8.55938H273.66V5.35938H275.74V5.80938H274.22V6.68937H275.53V7.12937ZM278.53 5.80938H277.53V8.55938H276.98V5.80938H275.98V5.35938H278.52L278.53 5.80938ZM270.47 13.5594V10.3594H271.56C271.854 10.3382 272.146 10.4156 272.39 10.5794C272.486 10.6569 272.562 10.7566 272.61 10.8698C272.659 10.9831 272.68 11.1065 272.67 11.2294C272.67 11.3685 272.628 11.5045 272.55 11.6194C272.468 11.7427 272.349 11.8371 272.21 11.8894C272.368 11.9305 272.506 12.0261 272.6 12.1594C272.703 12.2939 272.756 12.4601 272.75 12.6294C272.758 12.7589 272.735 12.8884 272.685 13.008C272.635 13.1276 272.558 13.2342 272.46 13.3194C272.22 13.4947 271.926 13.5797 271.63 13.5594H270.47ZM271.02 12.1194V13.1194H271.64C271.788 13.1239 271.932 13.078 272.05 12.9894C272.099 12.9436 272.136 12.8875 272.161 12.8252C272.185 12.7629 272.195 12.696 272.19 12.6294C272.202 12.5607 272.197 12.4901 272.177 12.4235C272.156 12.3569 272.12 12.2961 272.071 12.2463C272.022 12.1965 271.962 12.159 271.896 12.137C271.83 12.1149 271.759 12.1089 271.69 12.1194H271.02ZM271.02 11.7094H271.57C271.713 11.7169 271.855 11.6745 271.97 11.5894C272.019 11.5501 272.059 11.4997 272.085 11.4424C272.111 11.385 272.123 11.3223 272.12 11.2594C272.126 11.1942 272.116 11.1286 272.092 11.0678C272.067 11.007 272.029 10.9528 271.98 10.9094C271.854 10.832 271.707 10.797 271.56 10.8094H271.02V11.7094ZM275.14 12.8194H273.91L273.65 13.5594H273.07L274.28 10.3594H274.78L275.94 13.5594H275.36L275.14 12.8194ZM274.06 12.3694H274.99L274.52 11.0394L274.06 12.3694ZM278.84 13.5594H278.28L276.86 11.2894V13.5594H276.3V10.3594H276.86L278.29 12.6394V10.3594H278.84V13.5594ZM280.41 12.1794L280.05 12.5594V13.5594H279.5V10.3594H280.05V11.8594L280.36 11.4794L281.3 10.3594H281.97L280.78 11.7794L282.04 13.5594H281.38L280.41 12.1794ZM282.92 13.5594H282.37V10.3594H282.92V13.5594ZM286.14 13.5594H285.59L284.14 11.2894V13.5594H283.58V10.3594H284.14L285.57 12.6394V10.3594H286.14V13.5594ZM289.25 13.1394C289.129 13.302 288.962 13.4241 288.77 13.4894C288.546 13.5694 288.308 13.6067 288.07 13.5994C287.822 13.604 287.576 13.5418 287.36 13.4194C287.149 13.3008 286.981 13.1189 286.88 12.8994C286.764 12.6524 286.706 12.3822 286.71 12.1094V11.8594C286.681 11.4522 286.806 11.049 287.06 10.7294C287.182 10.5857 287.336 10.4734 287.51 10.402C287.684 10.3306 287.873 10.3023 288.06 10.3194C288.366 10.299 288.668 10.3915 288.91 10.5794C289.13 10.7743 289.266 11.0466 289.29 11.3394H288.75C288.744 11.2566 288.721 11.1758 288.684 11.1018C288.646 11.0277 288.594 10.9618 288.531 10.9079C288.468 10.854 288.394 10.8132 288.315 10.7877C288.236 10.7622 288.153 10.7526 288.07 10.7594C287.962 10.754 287.854 10.7759 287.756 10.8231C287.658 10.8703 287.573 10.9412 287.51 11.0294C287.364 11.2662 287.291 11.5411 287.3 11.8194V12.0694C287.286 12.3527 287.363 12.633 287.52 12.8694C287.591 12.9627 287.684 13.0376 287.79 13.0881C287.896 13.1385 288.013 13.1629 288.13 13.1594C288.239 13.1713 288.35 13.1606 288.455 13.1279C288.56 13.0953 288.657 13.0413 288.74 12.9694V12.3394H288.08V11.9194H289.29L289.25 13.1394Z" fill="#4E4E4E"/>
<path d="M263.97 4.55957C264.226 4.57241 264.468 4.68341 264.645 4.86957C264.822 5.05573 264.92 5.30279 264.92 5.55957V6.55957C265.533 6.61965 266.102 6.90785 266.513 7.36711C266.924 7.82637 267.148 8.42323 267.14 9.03957V11.6396C267.14 11.9574 267.077 12.2721 266.956 12.5657C266.834 12.8593 266.656 13.1261 266.431 13.3508C266.207 13.5755 265.94 13.7538 265.646 13.8754C265.353 13.997 265.038 14.0596 264.72 14.0596C264.402 14.0596 264.088 13.997 263.794 13.8754C263.5 13.7538 263.234 13.5755 263.009 13.3508C262.784 13.1261 262.606 12.8593 262.484 12.5657C262.363 12.2721 262.3 11.9574 262.3 11.6396V9.03957C262.292 8.42635 262.513 7.8321 262.92 7.37332C263.327 6.91455 263.89 6.62433 264.5 6.55957V5.55957C264.515 5.49375 264.515 5.42539 264.5 5.35957C264.479 5.29119 264.441 5.22923 264.39 5.17957C264.342 5.13046 264.284 5.09285 264.22 5.06957C264.151 5.05583 264.079 5.05583 264.01 5.06957C263.939 5.06952 263.868 5.08386 263.802 5.11174C263.737 5.13962 263.677 5.18045 263.628 5.23181C263.579 5.28316 263.54 5.34397 263.514 5.4106C263.489 5.47723 263.477 5.5483 263.48 5.61957V5.83957C263.48 6.09635 263.382 6.34341 263.205 6.52957C263.028 6.71573 262.786 6.82673 262.53 6.83957C262.275 6.82426 262.036 6.71218 261.861 6.52628C261.687 6.34038 261.59 6.09471 261.59 5.83957C261.581 5.80344 261.581 5.7657 261.59 5.72957C261.608 5.69576 261.636 5.66798 261.67 5.64957C261.703 5.64064 261.737 5.64064 261.77 5.64957C261.806 5.63929 261.844 5.63929 261.88 5.64957C261.911 5.67072 261.936 5.69908 261.954 5.73219C261.971 5.76529 261.98 5.80216 261.98 5.83957C261.97 5.91459 261.975 5.99097 261.997 6.06355C262.019 6.13613 262.056 6.20324 262.105 6.26034C262.155 6.31745 262.217 6.36323 262.285 6.3946C262.354 6.42597 262.429 6.4422 262.505 6.4422C262.581 6.4422 262.656 6.42597 262.725 6.3946C262.793 6.36323 262.855 6.31745 262.905 6.26034C262.954 6.20324 262.991 6.13613 263.013 6.06355C263.035 5.99097 263.04 5.91459 263.03 5.83957V5.55957C263.03 5.30443 263.127 5.05876 263.301 4.87286C263.476 4.68696 263.715 4.57488 263.97 4.55957ZM264.71 7.55957C264.671 7.5479 264.629 7.5479 264.59 7.55957C264.55 7.57689 264.513 7.60052 264.48 7.62957C264.453 7.66048 264.43 7.69398 264.41 7.72957C264.405 7.77277 264.405 7.81637 264.41 7.85957V9.03957C264.409 9.08243 264.416 9.12512 264.431 9.1651C264.447 9.20509 264.47 9.24155 264.5 9.27234C264.53 9.30312 264.566 9.32759 264.605 9.34429C264.645 9.36099 264.687 9.36959 264.73 9.36957H264.85L264.95 9.29957C264.982 9.26944 265.006 9.23159 265.02 9.18957C265.03 9.15016 265.03 9.10898 265.02 9.06957V7.95957C265.03 7.91676 265.03 7.87238 265.02 7.82957C265.004 7.79179 264.98 7.75775 264.95 7.72957L264.85 7.65957C264.811 7.65057 264.77 7.65057 264.73 7.65957L264.71 7.55957Z" fill="black"/>
<path d="M251.81 1.22949H221.81C221.545 1.22949 221.29 1.33485 221.103 1.52239C220.915 1.70992 220.81 1.96428 220.81 2.22949V16.8895C220.81 17.1547 220.915 17.4091 221.103 17.5966C221.29 17.7842 221.545 17.8895 221.81 17.8895H251.81C252.075 17.8895 252.329 17.7842 252.517 17.5966C252.705 17.4091 252.81 17.1547 252.81 16.8895V2.22949C252.81 1.96428 252.705 1.70992 252.517 1.52239C252.329 1.33485 252.075 1.22949 251.81 1.22949Z" fill="white" stroke="#E0E0E0" stroke-width="0.67"/>
<path opacity="0.94" fill-rule="evenodd" clip-rule="evenodd" d="M225.48 11.1997C225.48 11.1997 225.62 10.5797 226 9.19971C226.3 8.12971 226.59 7.12971 226.63 6.97971L226.72 6.69971H227.91C229.3 6.69971 229.51 6.69971 229.74 6.84971C230.13 7.04971 230.24 7.35971 230.11 7.84971C230 8.28941 229.724 8.66941 229.34 8.90971C229.26 8.96971 229.18 9.03971 229.18 9.05971C229.18 9.07971 229.18 9.15971 229.31 9.23971C229.382 9.29827 229.443 9.36942 229.49 9.44971C229.56 9.70162 229.56 9.9678 229.49 10.2197C229.441 10.4303 229.408 10.6443 229.39 10.8597V11.1297H228.81C228.607 11.1549 228.402 11.1549 228.2 11.1297C228.14 11.0697 228.15 10.9297 228.2 10.5197C228.25 10.1097 228.31 9.89971 228.2 9.78971C228.09 9.67971 227.98 9.60971 227.56 9.59971C227.14 9.58971 227.17 9.59971 227.12 9.59971C227.07 9.59971 226.97 9.84971 226.78 10.5397L226.62 11.1197H226.14C225.937 11.1312 225.733 11.1312 225.53 11.1197L225.48 11.1997ZM228.48 8.67971C228.76 8.59971 228.87 8.42971 228.87 8.08971C228.889 8.01768 228.889 7.94174 228.87 7.86971C228.79 7.77971 228.54 7.73971 228.07 7.76971H227.66L227.6 7.96971C227.525 8.18334 227.475 8.40475 227.45 8.62971C227.45 8.67971 227.45 8.69971 227.57 8.71971C227.904 8.74267 228.24 8.7225 228.57 8.65971L228.48 8.67971ZM230.41 11.2897C230.245 11.2342 230.108 11.1156 230.03 10.9597C229.91 10.6997 230.03 10.1097 230.44 8.68971C230.54 8.34971 230.62 8.06971 230.62 8.05971C230.62 8.05971 230.75 8.05971 231.11 8.05971C231.276 8.04273 231.444 8.04273 231.61 8.05971H231.69L231.61 8.31971C231.43 8.95971 231.24 9.72971 231.21 9.97971C231.18 10.2297 231.21 10.2597 231.21 10.3297C231.21 10.3997 231.59 10.5297 231.84 10.3997C232.09 10.2697 232.18 10.1297 232.66 8.50971C232.686 8.35934 232.744 8.21625 232.83 8.08971L232.92 7.99971H233.39C233.75 7.99971 233.86 7.99971 233.87 7.99971C233.88 7.99971 233.29 10.2197 233.04 11.0697V11.2097H232.04C232.051 11.1582 232.068 11.1079 232.09 11.0597C232.19 10.7797 232.09 10.7597 231.69 11.0597C231.456 11.2542 231.164 11.3635 230.86 11.3697C230.715 11.3991 230.565 11.3991 230.42 11.3697L230.41 11.2897ZM233.76 11.1997C233.904 10.4444 234.098 9.69945 234.34 8.96971L234.97 6.75971H235.97C237.28 6.75971 237.55 6.75971 237.8 6.91971C237.974 6.98868 238.119 7.1159 238.21 7.27971C238.287 7.45279 238.327 7.64019 238.327 7.82971C238.327 8.01923 238.287 8.20663 238.21 8.37971C238.116 8.69531 237.945 8.98276 237.713 9.21652C237.481 9.45029 237.195 9.62313 236.88 9.71971C236.652 9.75753 236.421 9.78091 236.19 9.78971C235.26 9.84971 235.32 9.78971 235.27 9.95971C235.22 10.1297 235.15 10.3297 235.06 10.6397L234.9 11.2097H234.32C234.12 11.221 233.92 11.221 233.72 11.2097L233.76 11.1997ZM236.47 8.81971C236.585 8.81943 236.699 8.7888 236.799 8.73089C236.899 8.67298 236.982 8.58981 237.04 8.48971C237.092 8.40894 237.124 8.31721 237.135 8.22177C237.145 8.12633 237.133 8.02977 237.1 7.93971C237.01 7.79971 236.88 7.76971 236.39 7.76971C236.23 7.75582 236.07 7.75582 235.91 7.76971C235.807 8.07689 235.727 8.39103 235.67 8.70971C235.662 8.73916 235.662 8.77025 235.67 8.79971C235.929 8.82963 236.191 8.82963 236.45 8.79971L236.47 8.81971ZM238.18 11.2997C237.83 11.1497 237.74 10.9097 237.85 10.4297C238.02 9.74971 238.37 9.52971 239.59 9.32971C240.33 9.19971 240.51 9.10971 240.59 8.84971C240.67 8.58971 240.47 8.55971 240.14 8.55971C240.049 8.55212 239.958 8.56528 239.873 8.5982C239.788 8.63112 239.712 8.68293 239.65 8.74971L239.5 8.86971H239.14C238.69 8.86971 238.55 8.86971 238.55 8.79971C238.623 8.61494 238.74 8.45038 238.89 8.31971C239.083 8.15415 239.312 8.03752 239.56 7.97971C240.143 7.82676 240.756 7.82676 241.34 7.97971C241.504 8.0518 241.64 8.17444 241.73 8.32971C241.8 8.45971 241.78 8.58971 241.45 9.83971C241.3 10.4597 241.17 11.0097 241.17 11.0797V11.1897H240.8H240.29H240.15L240.09 11.0497C240.01 10.8797 240.01 10.8797 239.63 11.0497C239.357 11.1926 239.057 11.2745 238.75 11.2897C238.584 11.3163 238.414 11.2955 238.26 11.2297L238.18 11.2997ZM239.8 10.6097C239.921 10.5322 240.023 10.4295 240.101 10.3087C240.179 10.1879 240.229 10.0518 240.25 9.90971V9.78971H240.06C239.771 9.83229 239.491 9.92003 239.23 10.0497C239.167 10.0889 239.113 10.1398 239.07 10.1997C239.035 10.268 239.014 10.343 239.01 10.4197C239.01 10.5597 239.01 10.5997 239.13 10.6397C239.35 10.6932 239.58 10.6932 239.8 10.6397V10.6097ZM241.46 12.6097C241.34 12.6097 241.34 12.5297 241.46 12.2097C241.58 11.8897 241.56 11.7797 241.84 11.7397C242.12 11.6997 242.27 11.6297 242.34 11.4997C242.434 10.7527 242.434 9.99675 242.34 9.24971C242.311 8.82686 242.311 8.40255 242.34 7.97971C242.34 7.97971 242.51 7.97971 242.91 7.97971H243.44V8.97971C243.419 9.3127 243.419 9.64671 243.44 9.97971C243.5 10.0297 243.7 9.69971 244.53 8.17971L244.64 7.95971H245.14C245.3 7.9473 245.46 7.9473 245.62 7.95971C245.62 7.95971 244.92 9.24971 244.2 10.4597C243.2 12.1897 242.99 12.4597 242.51 12.5597C242.179 12.612 241.844 12.6287 241.51 12.6097H241.46Z" fill="#2A2C83"/>
<path fill-rule="evenodd" clip-rule="evenodd" d="M245.93 12.2294L247.33 7.14941L248.67 9.77941L245.93 12.2294Z" fill="#097A44"/>
<path fill-rule="evenodd" clip-rule="evenodd" d="M245.05 12.2495L246.46 7.16943L247.8 9.79943L245.05 12.2495Z" fill="#F46F20"/>
<path d="M214.57 1.55957H185.71C185.382 1.56218 185.068 1.69367 184.836 1.92565C184.604 2.15763 184.473 2.47151 184.47 2.79957V16.3196C184.473 16.6477 184.604 16.9615 184.836 17.1935C185.068 17.4255 185.382 17.557 185.71 17.5596H214.57C214.898 17.557 215.212 17.4255 215.444 17.1935C215.676 16.9615 215.807 16.6477 215.81 16.3196V2.79957C215.807 2.47151 215.676 2.15763 215.444 1.92565C215.212 1.69367 214.898 1.56218 214.57 1.55957Z" fill="white"/>
<path d="M195.59 17.5596H214.59C214.753 17.5609 214.914 17.5301 215.064 17.4689C215.214 17.4076 215.351 17.3172 215.466 17.2029C215.582 17.0885 215.673 16.9525 215.736 16.8026C215.798 16.6527 215.83 16.492 215.83 16.3296V10.5596C215.83 10.5596 208.69 15.3996 195.61 17.5596H195.59Z" fill="#F58220"/>
<path fill-rule="evenodd" clip-rule="evenodd" d="M189.2 8.99955C188.918 9.22569 188.56 9.33329 188.2 9.29955H188V6.86955H188.2C188.378 6.85122 188.558 6.86829 188.73 6.91977C188.901 6.97126 189.061 7.05614 189.2 7.16955C189.329 7.28293 189.433 7.42288 189.504 7.57991C189.575 7.73693 189.611 7.90734 189.61 8.07955C189.611 8.25325 189.575 8.42518 189.504 8.58384C189.434 8.7425 189.33 8.88423 189.2 8.99955ZM188.34 6.24955H187.25V9.91955H188.33C188.82 9.94364 189.303 9.79107 189.69 9.48956C189.902 9.32042 190.072 9.10592 190.19 8.86188C190.308 8.61784 190.369 8.35049 190.37 8.07955C190.368 7.82514 190.314 7.57386 190.21 7.34141C190.107 7.10896 189.956 6.90035 189.769 6.7286C189.581 6.55685 189.36 6.42566 189.119 6.34323C188.879 6.26081 188.623 6.22892 188.37 6.24955H188.34ZM190.72 6.24955H191.45V9.91955H190.72V6.24955ZM193.26 7.64955C192.82 7.49955 192.69 7.38955 192.69 7.18955C192.69 6.98955 192.92 6.78955 193.24 6.78955C193.355 6.79057 193.469 6.81711 193.572 6.86725C193.676 6.91739 193.767 6.9899 193.84 7.07955L194.22 6.58956C193.911 6.32561 193.516 6.18339 193.11 6.18955C192.821 6.16737 192.535 6.25993 192.314 6.44714C192.094 6.63435 191.955 6.90111 191.93 7.18955C191.93 7.68955 192.16 7.94955 192.86 8.18955C193.036 8.24498 193.206 8.31523 193.37 8.39955C193.435 8.43967 193.49 8.49447 193.53 8.55955C193.568 8.62669 193.589 8.70236 193.59 8.77956C193.589 8.85181 193.573 8.92306 193.543 8.98894C193.513 9.05481 193.471 9.11392 193.417 9.16263C193.364 9.21133 193.301 9.24859 193.233 9.27215C193.164 9.2957 193.092 9.30502 193.02 9.29955C192.851 9.30163 192.685 9.25661 192.54 9.16955C192.398 9.08267 192.284 8.95798 192.21 8.80955L191.73 9.25955C191.87 9.48141 192.065 9.66279 192.297 9.78561C192.528 9.90843 192.788 9.9684 193.05 9.95955C193.217 9.97341 193.385 9.95239 193.544 9.89783C193.702 9.84326 193.848 9.75633 193.971 9.64255C194.094 9.52878 194.192 9.39065 194.259 9.23692C194.326 9.0832 194.36 8.91723 194.36 8.74955C194.36 8.16955 194.1 7.89955 193.26 7.59955V7.64955ZM194.59 8.07955C194.591 8.33816 194.644 8.59391 194.746 8.83158C194.848 9.06925 194.997 9.28401 195.183 9.4631C195.37 9.6422 195.59 9.78198 195.832 9.87413C196.074 9.96628 196.331 10.0089 196.59 9.99955C196.913 10.0025 197.232 9.92696 197.52 9.77956V8.93955C197.407 9.0661 197.268 9.16719 197.113 9.23614C196.958 9.30509 196.79 9.34034 196.62 9.33955C196.452 9.34653 196.285 9.31879 196.128 9.25807C195.971 9.19735 195.829 9.10496 195.71 8.98668C195.591 8.8684 195.497 8.72678 195.435 8.57069C195.373 8.4146 195.344 8.2474 195.35 8.07955C195.347 7.91504 195.377 7.75164 195.438 7.59888C195.5 7.44612 195.59 7.30706 195.706 7.18978C195.821 7.07251 195.959 6.97938 196.111 6.91582C196.262 6.85226 196.425 6.81954 196.59 6.81956C196.765 6.82019 196.938 6.85691 197.098 6.92747C197.258 6.99802 197.401 7.10086 197.52 7.22955V6.38955C197.239 6.24303 196.927 6.1675 196.61 6.16955C196.091 6.16384 195.591 6.35985 195.214 6.71621C194.837 7.07256 194.613 7.5614 194.59 8.07955ZM203.51 8.70955L202.51 6.24955H201.7L203.31 10.0096H203.71L205.35 6.24955H204.55L203.55 8.70955H203.51ZM205.67 9.91955H207.77V9.29955H206.41V8.29956H207.72V7.67955H206.41V6.86955H207.77V6.24955H205.67V9.91955ZM209.21 7.91955H209V6.82955H209.23C209.69 6.82955 209.94 7.00955 209.94 7.36955C209.94 7.72955 209.69 7.93955 209.21 7.93955V7.91955ZM210.7 7.30955C210.7 6.61955 210.21 6.22955 209.36 6.22955H208.26V9.91955H209V8.43955H209.1L210.1 9.91955H211.01L209.84 8.36955C210.08 8.33559 210.3 8.21542 210.458 8.03144C210.616 7.84745 210.702 7.61221 210.7 7.36955V7.30955Z" fill="#1A1919"/>
<path fill-rule="evenodd" clip-rule="evenodd" d="M201.8 8.08936C201.8 8.61979 201.589 9.1285 201.214 9.50357C200.839 9.87864 200.331 10.0893 199.8 10.0893C199.27 10.0893 198.761 9.87864 198.386 9.50357C198.011 9.1285 197.8 8.61979 197.8 8.08936C197.8 7.55892 198.011 7.05021 198.386 6.67514C198.761 6.30007 199.27 6.08936 199.8 6.08936C200.331 6.08936 200.839 6.30007 201.214 6.67514C201.589 7.05021 201.8 7.55892 201.8 8.08936Z" fill="#F58220"/>
<path d="M178.47 1.22949H148.47C148.205 1.22949 147.951 1.33485 147.763 1.52239C147.575 1.70992 147.47 1.96428 147.47 2.22949V16.8895C147.47 17.1547 147.575 17.4091 147.763 17.5966C147.951 17.7842 148.205 17.8895 148.47 17.8895H178.47C178.735 17.8895 178.99 17.7842 179.177 17.5966C179.365 17.4091 179.47 17.1547 179.47 16.8895V2.22949C179.47 1.96428 179.365 1.70992 179.177 1.52239C178.99 1.33485 178.735 1.22949 178.47 1.22949Z" fill="white" stroke="#E0E0E0" stroke-width="0.67"/>
<path fill-rule="evenodd" clip-rule="evenodd" d="M160.44 4.55957H166.55C167.876 4.55957 169.148 5.08635 170.085 6.02404C171.023 6.96172 171.55 8.23349 171.55 9.55957C171.55 10.549 171.256 11.5161 170.706 12.3385C170.156 13.1609 169.374 13.8016 168.46 14.1796C167.851 14.43 167.198 14.5591 166.54 14.5596H160.44V4.55957Z" fill="#184977"/>
<path d="M160.44 14.0598C161.328 14.0499 162.193 13.7777 162.926 13.2772C163.66 12.7768 164.229 12.0706 164.562 11.2475C164.895 10.4244 164.977 9.52122 164.797 8.65163C164.618 7.78203 164.186 6.98489 163.554 6.36055C162.923 5.7362 162.121 5.31256 161.25 5.14294C160.378 4.97332 159.476 5.06531 158.657 5.40732C157.837 5.74934 157.137 6.32609 156.645 7.06499C156.153 7.80389 155.89 8.67191 155.89 9.55978C155.893 10.1542 156.012 10.7423 156.243 11.2903C156.473 11.8384 156.809 12.3356 157.232 12.7536C157.654 13.1716 158.155 13.5022 158.706 13.7263C159.256 13.9504 159.846 14.0638 160.44 14.0598Z" fill="white" stroke="#184977"/>
<path fill-rule="evenodd" clip-rule="evenodd" d="M162.46 9.55957C162.461 9.07561 162.319 8.60221 162.05 8.19957C161.781 7.7991 161.398 7.48895 160.95 7.30957V11.8096C161.398 11.6302 161.781 11.3201 162.05 10.9196C162.319 10.5169 162.461 10.0435 162.46 9.55957ZM159.94 11.8096V7.30957C159.489 7.48817 159.102 7.79818 158.829 8.19939C158.557 8.6006 158.411 9.07449 158.411 9.55957C158.411 10.0447 158.557 10.5185 158.829 10.9198C159.102 11.321 159.489 11.631 159.94 11.8096Z" fill="#184977"/>
<path d="M141.81 1.22949H111.81C111.545 1.22949 111.29 1.33485 111.103 1.52239C110.915 1.70992 110.81 1.96428 110.81 2.22949V16.8895C110.81 17.1547 110.915 17.4091 111.103 17.5966C111.29 17.7842 111.545 17.8895 111.81 17.8895H141.81C142.075 17.8895 142.329 17.7842 142.517 17.5966C142.705 17.4091 142.81 17.1547 142.81 16.8895V2.22949C142.81 1.96428 142.705 1.70992 142.517 1.52239C142.329 1.33485 142.075 1.22949 141.81 1.22949Z" fill="white" stroke="#E0E0E0" stroke-width="0.67"/>
<path d="M128.93 12.2496L128.65 11.9096V12.2496H127.73V11.6596C127.612 11.7187 127.482 11.7495 127.35 11.7496H127.02V12.2496H125.64L125.39 11.9196L125.14 12.2496H122.85V10.0696H125.14L125.39 10.3896L125.64 10.0696H134.04V2.55957H120.14V8.42957L120.66 7.19957H121.56L121.86 7.87957V7.19957H122.98L123.16 7.69957L123.33 7.19957H128.33V7.44957C128.533 7.28387 128.788 7.19531 129.05 7.19957H130.65L130.95 7.87957V7.19957H131.9L132.14 7.55957V7.19957H133.14V9.37957H132.14L131.89 8.98957V9.37957H130.51L130.37 9.04957H130L129.86 9.37957H129.01C128.759 9.39223 128.513 9.31013 128.32 9.14957V9.37957H126.91L126.63 9.03957V9.37957H121.39L121.26 9.04957H120.88L120.74 9.37957H120.14V16.4696H134.05V12.0896C133.896 12.2006 133.71 12.2569 133.52 12.2496H128.93Z" fill="#0079C1"/>
<path d="M134.06 10.3398L133.9 10.7098L133.12 10.5498C133.104 10.5432 133.087 10.5398 133.07 10.5398C133.053 10.5398 133.036 10.5432 133.02 10.5498C133.011 10.5791 133.011 10.6105 133.02 10.6398C133.02 10.6769 133.035 10.7125 133.061 10.7388C133.087 10.765 133.123 10.7798 133.16 10.7798H133.54C133.87 10.7798 134.06 10.9498 134.06 11.2498C134.074 11.3191 134.074 11.3905 134.06 11.4598C134.032 11.5295 133.987 11.5913 133.93 11.6398C133.876 11.6894 133.813 11.7274 133.745 11.7515C133.676 11.7756 133.603 11.7852 133.53 11.7798H132.68V11.4098H133.6C133.606 11.3937 133.606 11.3759 133.6 11.3598C133.605 11.3401 133.605 11.3195 133.6 11.2998H133.55H133.1C133.034 11.3141 132.966 11.3141 132.9 11.2998C132.836 11.2804 132.778 11.2461 132.73 11.1998C132.679 11.1538 132.641 11.0952 132.62 11.0298C132.606 10.9673 132.606 10.9023 132.62 10.8398C132.62 10.7668 132.637 10.6948 132.67 10.6298C132.698 10.5627 132.739 10.5015 132.79 10.4498C132.845 10.4 132.909 10.3625 132.98 10.3398C133.049 10.3249 133.121 10.3249 133.19 10.3398H134.06Z" fill="#0079C1"/>
<path d="M105.14 1.22949H75.14C74.8748 1.22949 74.6204 1.33485 74.4329 1.52239C74.2454 1.70992 74.14 1.96428 74.14 2.22949V16.8895C74.14 17.1547 74.2454 17.4091 74.4329 17.5966C74.6204 17.7842 74.8748 17.8895 75.14 17.8895H105.14C105.405 17.8895 105.66 17.7842 105.847 17.5966C106.035 17.4091 106.14 17.1547 106.14 16.8895V2.22949C106.14 1.96428 106.035 1.70992 105.847 1.52239C105.66 1.33485 105.405 1.22949 105.14 1.22949Z" fill="white" stroke="#E0E0E0" stroke-width="0.67"/>
<path d="M86.6 14.5596C87.5889 14.5596 88.5556 14.2664 89.3778 13.7169C90.2001 13.1675 90.8409 12.3866 91.2194 11.473C91.5978 10.5594 91.6968 9.55403 91.5039 8.58412C91.311 7.61422 90.8348 6.7233 90.1355 6.02404C89.4362 5.32478 88.5453 4.84857 87.5754 4.65565C86.6055 4.46272 85.6002 4.56174 84.6865 4.94017C83.7729 5.31861 82.992 5.95948 82.4426 6.78172C81.8932 7.60397 81.6 8.57067 81.6 9.55957C81.6 10.8857 82.1267 12.1575 83.0644 13.0951C84.0021 14.0328 85.2739 14.5596 86.6 14.5596Z" fill="#007BDB"/>
<path d="M93.68 14.5597C94.6662 14.5479 95.627 14.2446 96.4413 13.6881C97.2556 13.1315 97.8871 12.3465 98.2564 11.4319C98.6256 10.5173 98.7161 9.51391 98.5165 8.54799C98.3168 7.58207 97.836 6.69678 97.1344 6.0035C96.4328 5.31023 95.5418 4.83995 94.5736 4.65184C93.6053 4.46372 92.6031 4.56618 91.693 4.94632C90.7828 5.32646 90.0054 5.96729 89.4586 6.78819C88.9118 7.60908 88.6201 8.57336 88.62 9.5597C88.6199 10.2214 88.7512 10.8765 89.0062 11.4871C89.2613 12.0977 89.6349 12.6516 90.1056 13.1166C90.5763 13.5817 91.1346 13.9488 91.7481 14.1965C92.3617 14.4442 93.0183 14.5677 93.68 14.5597Z" fill="#E42B00"/>
<path fill-rule="evenodd" clip-rule="evenodd" d="M90.14 13.1395C91.0367 12.1523 91.5725 10.8904 91.66 9.55949C91.5725 8.22866 91.0367 6.96673 90.14 5.97949C89.6484 6.43518 89.2587 6.98977 88.9968 7.60679C88.7348 8.22381 88.6064 8.8893 88.62 9.55949C88.6083 10.2294 88.7375 10.8944 88.9994 11.5111C89.2613 12.1279 89.6499 12.6827 90.14 13.1395Z" fill="#1740CE"/>
<path d="M68.4701 1.22949H38.4701C38.2049 1.22949 37.9505 1.33485 37.763 1.52239C37.5754 1.70992 37.4701 1.96428 37.4701 2.22949V16.8895C37.4701 17.1547 37.5754 17.4091 37.763 17.5966C37.9505 17.7842 38.2049 17.8895 38.4701 17.8895H68.4701C68.7353 17.8895 68.9896 17.7842 69.1772 17.5966C69.3647 17.4091 69.4701 17.1547 69.4701 16.8895V2.22949C69.4701 1.96428 69.3647 1.70992 69.1772 1.52239C68.9896 1.33485 68.7353 1.22949 68.4701 1.22949Z" fill="white" stroke="#E0E0E0" stroke-width="0.67"/>
<path d="M49.9402 14.5597C50.9265 14.5479 51.8872 14.2446 52.7015 13.6881C53.5159 13.1315 54.1474 12.3465 54.5166 11.4319C54.8859 10.5173 54.9764 9.51391 54.7767 8.54799C54.5771 7.58207 54.0962 6.69678 53.3946 6.0035C52.693 5.31023 51.8021 4.83995 50.8338 4.65184C49.8656 4.46372 48.8634 4.56618 47.9532 4.94632C47.0431 5.32646 46.2657 5.96729 45.7189 6.78819C45.1721 7.60908 44.8803 8.57336 44.8802 9.5597C44.8802 10.2214 45.0115 10.8765 45.2665 11.4871C45.5215 12.0977 45.8952 12.6516 46.3658 13.1166C46.8365 13.5817 47.3948 13.9488 48.0084 14.1965C48.622 14.4442 49.2786 14.5677 49.9402 14.5597Z" fill="#CC0000"/>
<path d="M57.0101 14.5596C57.999 14.5596 58.9657 14.2664 59.788 13.7169C60.6102 13.1675 61.2511 12.3866 61.6295 11.473C62.008 10.5594 62.107 9.55403 61.914 8.58412C61.7211 7.61422 61.2449 6.7233 60.5457 6.02404C59.8464 5.32478 58.9555 4.84857 57.9856 4.65565C57.0157 4.46272 56.0103 4.56174 55.0967 4.94017C54.1831 5.31861 53.4022 5.95948 52.8528 6.78172C52.3034 7.60397 52.0101 8.57067 52.0101 9.55957C52.0101 10.8857 52.5369 12.1575 53.4746 13.0951C54.4123 14.0328 55.684 14.5596 57.0101 14.5596Z" fill="#FF9900"/>
<path fill-rule="evenodd" clip-rule="evenodd" d="M53.4699 13.1395C54.3667 12.1523 54.9025 10.8904 54.9899 9.55949C54.9025 8.22866 54.3667 6.96673 53.4699 5.97949C52.9806 6.43647 52.5932 6.99152 52.333 7.60841C52.0728 8.22529 51.9457 8.89013 51.9599 9.55949C51.9476 10.2286 52.0756 10.8929 52.3356 11.5095C52.5957 12.1261 52.9821 12.6814 53.4699 13.1395Z" fill="#F16D27"/>
<path d="M31.8099 1.22949H1.80993C1.54472 1.22949 1.29036 1.33485 1.10283 1.52239C0.915294 1.70992 0.809937 1.96428 0.809937 2.22949V16.8895C0.809937 17.1547 0.915294 17.4091 1.10283 17.5966C1.29036 17.7842 1.54472 17.8895 1.80993 17.8895H31.8099C32.0751 17.8895 32.3295 17.7842 32.517 17.5966C32.7046 17.4091 32.8099 17.1547 32.8099 16.8895V2.22949C32.8099 1.96428 32.7046 1.70992 32.517 1.52239C32.3295 1.33485 32.0751 1.22949 31.8099 1.22949Z" fill="white" stroke="#E0E0E0" stroke-width="0.67"/>
<path d="M14.14 6.35953L11.39 12.9196H9.57001L8.22001 7.67953C8.20407 7.55677 8.15839 7.43977 8.08694 7.33869C8.01548 7.23761 7.92042 7.15551 7.81001 7.09953C7.27719 6.85275 6.71644 6.67143 6.14001 6.55953V6.35953H9.07001C9.25861 6.36234 9.43978 6.4334 9.58001 6.55953C9.72019 6.68561 9.81506 6.85426 9.85001 7.03953L10.56 10.8396L12.33 6.35953H14.14ZM21.14 10.7796C21.14 9.03953 18.75 8.94953 18.76 8.16953C18.76 7.93953 18.99 7.68953 19.48 7.62953C20.0494 7.57314 20.6234 7.67342 21.14 7.91953L21.45 6.55953C20.9452 6.36825 20.4099 6.26999 19.87 6.26953C18.2 6.26953 17.01 7.15953 17 8.43953C17 9.37953 17.84 9.90953 18.49 10.2195C19.14 10.5295 19.37 10.7496 19.37 11.0396C19.37 11.4796 18.84 11.6696 18.37 11.6796C17.7633 11.6932 17.1636 11.5484 16.63 11.2596L16.32 12.6996C16.9231 12.9315 17.5638 13.0502 18.21 13.0496C19.99 13.0496 21.16 12.1696 21.16 10.8096L21.14 10.7796ZM25.57 12.9096H27.14L25.77 6.35953H24.32C24.1666 6.35659 24.0161 6.40208 23.89 6.48953C23.7581 6.57182 23.6563 6.69461 23.6 6.83953L21.05 12.9196H22.83L23.19 11.9196H25.37L25.57 12.9096ZM23.68 10.5595L24.57 8.09953L25.08 10.5595H23.68ZM16.54 6.35953L15.14 12.9196H13.44L14.84 6.35953H16.54Z" fill="#1A1F71"/>
</g>
<defs>
<clipPath id="clip0_1_732">
<rect width="377" height="18" fill="white" transform="translate(0.140015 0.55957)"/>
</clipPath>
</defs>
</svg>
